<?xml version="1.0" standalone="no"?><!DOCTYPE svg PUBLIC "-//W3C//DTD SVG 1.1//EN" "http://www.w3.org/Graphics/SVG/1.1/DTD/svg11.dtd"><svg t="1573024044042" class="icon" viewBox="0 0 1024 1024" version="1.1" xmlns="http://www.w3.org/2000/svg" p-id="2177" xmlns:xlink="http://www.w3.org/1999/xlink" width="200" height="200"><defs><style type="text/css"></style></defs><path d="M714.811979 499.947766a190.97984 190.97984 0 0 0-98.455632-167.133705h307.350182l44.04911 44.019001a191.040058 191.040058 0 0 1 0 270.165869l-252.913551 252.913551V499.947766zM123.867423 714.894176h399.934607a190.97984 190.97984 0 0 0 167.133705-98.51585v307.4104l-43.988892 44.019001a191.040058 191.040058 0 0 1-270.165869 0l-252.913551-252.913551z m-67.895245-67.925354a191.040058 191.040058 0 0 1 0-270.165869l252.913551-252.913551v399.934608a190.97984 190.97984 0 0 0 98.455633 167.133705H100.021288l-44.019002-43.988893zM332.761973 99.98305l44.019001-44.019002a191.009949 191.009949 0 0 1 270.165869 0l252.913551 252.913552H499.895678a190.949731 190.949731 0 0 0-167.133705 98.455632V100.043267z" p-id="2178"></path></svg>