<?xml version="1.0" standalone="no"?><!DOCTYPE svg PUBLIC "-//W3C//DTD SVG 1.1//EN" "http://www.w3.org/Graphics/SVG/1.1/DTD/svg11.dtd"><svg t="1573024023550" class="icon" viewBox="0 0 1919 1024" version="1.1" xmlns="http://www.w3.org/2000/svg" p-id="2050" xmlns:xlink="http://www.w3.org/1999/xlink" width="374.8046875" height="200"><defs><style type="text/css"></style></defs><path d="M807.827589 66.602907 879.456976 258.503519 721.020524 258.503519 652.534733 66.602907Z" p-id="2051"></path><path d="M71.142294 160.674423l739.007177 0 0 97.829096-739.007177 0 0-97.829096Z" p-id="2052"></path><path d="M202.588021 200.367447l0 255.285221 0 95.257527-24.681122 0c-58.962903 0-106.763582-42.650379-106.763582-95.257527L71.143317 200.367447 202.588021 200.367447z" p-id="2053"></path><path d="M192.020338 453.081099l697.753611 0 0 97.829096-697.753611 0 0-97.829096Z" p-id="2054"></path><path d="M251.788583 640.6081 115.872031 640.6081 64.556295 871.590821 201.155393 871.590821Z" p-id="2055"></path><path d="M699.101305 640.6081 835.017858 640.6081 886.333594 871.590821 749.734496 871.590821Z" p-id="2056"></path><path d="M1363.768357 63.472614l136.570445 0 0 94.557586-136.570445 0 0-94.557586Z" p-id="2057"></path><path d="M1003.14502 135.070278l854.997911 0 0 80.753185-854.997911 0 0-80.753185Z" p-id="2058"></path><path d="M1745.977315 363.724978l0-87.216387-621.891829 0 0 200.976314 515.715625 0C1713.094394 480.033961 1748.467019 442.111257 1745.977315 363.724978zM1590.505381 413.022755l-348.866572 0 0-75.841316 386.78723 0 0 30.334889C1630.913697 400.401296 1618.294284 415.56874 1590.505381 413.022755z" p-id="2059"></path><path d="M1631.41307 780.925892 1631.41307 682.33341l-401.954675 0 0 200.980407 295.776424 0C1601.076134 888.409882 1636.44876 854.278527 1631.41307 780.925892zM1487.315184 822.639946l-151.679561 0 0-75.841316 189.600219 0 0 34.126238C1527.725546 811.264874 1515.104087 825.185932 1487.315184 822.639946z" p-id="2060"></path><path d="M1033.890254 532.142759l111.947651 0 0 424.707888-111.947651 0 0-424.707888Z" p-id="2061"></path><path d="M1070.232974 532.142759l648.938835 0 0 97.829096-648.938835 0 0-97.829096Z" p-id="2062"></path><path d="M1719.17181 532.295232l0 424.554392 8.417717 0c53.919027 0 98.156554-33.741475 102.785991-76.751035l0.425695 0L1830.801213 532.295232 1719.17181 532.295232z" p-id="2063"></path><path d="M429.748694 355.724771l145.458883 0 0 489.031892-145.458883 0 0-489.031892Z" p-id="2064"></path><path d="M262.184351 826.458925l204.978465 0 0 130.391722-204.978465 0 0-130.391722Z" p-id="2065"></path><path d="M462.290855 732.479507c62.364373 0 112.916722 50.214658 112.916722 112.147196 0 61.944817-50.553373 112.150266-112.916722 112.150266L462.290855 732.479507z" p-id="2066"></path></svg>